<?xml version="1.0" encoding="UTF-8"?>
<svg width="312px" height="64px" viewBox="0 0 312 64" version="1.1" xmlns="http://www.w3.org/2000/svg" xmlns:xlink="http://www.w3.org/1999/xlink">
    <!-- Generator: Sketch 58 (84663) - https://sketch.com -->
    <title>Custom Preset</title>
    <desc>Created with Sketch.</desc>
    <g id="Custom-Preset" stroke="none" stroke-width="1" fill="none" fill-rule="evenodd">
        <rect fill="#F7A800" x="0" y="0" width="312" height="64"></rect>
        <path d="M24,41 L24,20 L42,20 L42,23 L45,23 L45,32 L42,32 L42,35 L30,35 L30,41 L24,41 Z M30,32 L39,32 L39,23 L30,23 L30,32 Z M51,41 L51,38 L48,38 L48,29 L51,29 L51,26 L66,26 L66,29 L69,29 L69,38 L66,38 L66,41 L51,41 Z M54,38 L63,38 L63,29 L54,29 L54,38 Z M75,41 L75,38 L81,38 L81,23 L78,23 L78,20 L87,20 L87,38 L93,38 L93,41 L75,41 Z M105,23 L105,20 L111,20 L111,23 L105,23 Z M99,41 L99,38 L105,38 L105,29 L102,29 L102,26 L111,26 L111,38 L117,38 L117,41 L99,41 Z M123,41 L123,38 L120,38 L120,29 L123,29 L123,26 L141,26 L141,29 L126,29 L126,38 L141,38 L141,41 L123,41 Z M147,41 L147,38 L144,38 L144,29 L147,29 L147,26 L162,26 L162,29 L165,29 L165,35 L150,35 L150,38 L162,38 L162,41 L147,41 Z M150,32 L159,32 L159,29 L150,29 L150,32 Z M267,41 L267,38 L264,38 L264,29 L267,29 L267,26 L282,26 L282,29 L285,29 L285,35 L270,35 L270,38 L282,38 L282,41 L267,41 Z M270,32 L279,32 L279,29 L270,29 L270,32 Z M195,41 L195,20 L201,20 L201,38 L213,38 L213,41 L195,41 Z M225,23 L225,20 L231,20 L231,23 L225,23 Z M219,41 L219,38 L225,38 L225,29 L222,29 L222,26 L231,26 L231,38 L237,38 L237,41 L219,41 Z M240,41 L240,26 L258,26 L258,29 L261,29 L261,41 L255,41 L255,29 L246,29 L246,41 L240,41 Z" id="PoliceLine" fill="#333333" fill-rule="nonzero"></path>
    </g>
</svg>