<?xml version="1.0" encoding="UTF-8"?>
<svg width="24px" height="24px" viewBox="0 0 24 24" version="1.1" xmlns="http://www.w3.org/2000/svg" xmlns:xlink="http://www.w3.org/1999/xlink">
    <!-- Generator: Sketch 58 (84663) - https://sketch.com -->
    <title>border</title>
    <desc>Created with Sketch.</desc>
    <g id="border" stroke="none" stroke-width="1" fill="none" fill-rule="evenodd">
        <g id="Group" transform="translate(2.000000, 2.000000)" fill="#000000">
            <rect id="Rectangle" x="3" y="0" width="4" height="2"></rect>
            <rect id="Rectangle" x="3" y="17" width="4" height="2"></rect>
            <rect id="Rectangle" x="8" y="17" width="4" height="2"></rect>
            <rect id="Rectangle" x="13" y="17" width="4" height="2"></rect>
            <polygon id="Rectangle" points="8 0 12 0 12 2 8 2 8 1.11357748"></polygon>
            <polygon id="Rectangle" points="13 0 17 0 17 2 13 2 13 1.11357748"></polygon>
            <rect id="Rectangle" x="18" y="0" width="2" height="4"></rect>
            <rect id="Rectangle" x="0" y="0" width="2" height="4"></rect>
            <rect id="Rectangle" x="0" y="5" width="2" height="4"></rect>
            <rect id="Rectangle" x="0" y="10" width="2" height="4"></rect>
            <rect id="Rectangle" x="0" y="15" width="2" height="4"></rect>
            <rect id="Rectangle" x="18" y="15" width="2" height="4"></rect>
            <rect id="Rectangle" x="18" y="10" width="2" height="4"></rect>
            <rect id="Rectangle" x="18" y="5" width="2" height="4"></rect>
        </g>
    </g>
</svg>