<?xml version="1.0" encoding="UTF-8"?>
<svg width="24px" height="24px" viewBox="0 0 24 24" version="1.1" xmlns="http://www.w3.org/2000/svg" xmlns:xlink="http://www.w3.org/1999/xlink">
    <!-- Generator: Sketch 58 (84663) - https://sketch.com -->
    <title>font</title>
    <desc>Created with Sketch.</desc>
    <g id="font" stroke="none" stroke-width="1" fill="none" fill-rule="evenodd">
        <g id="Group" transform="translate(3.000000, 3.000000)" fill="#000000">
            <polygon id="Rectangle" transform="translate(8.000000, 2.000000) scale(1, -1) translate(-8.000000, -2.000000) " points="7 1 9 1 9 3 7.95824732 3 7 3"></polygon>
            <rect id="Rectangle" x="8" y="1" width="3" height="1"></rect>
            <rect id="Rectangle" x="8" y="0" width="2" height="1"></rect>
            <rect id="Rectangle" x="3" y="12" width="2" height="3"></rect>
            <rect id="Rectangle" x="5" y="9" width="1" height="3"></rect>
            <rect id="Rectangle" x="4" y="9" width="2" height="3"></rect>
            <rect id="Rectangle" x="5" y="6" width="2" height="3"></rect>
            <rect id="Rectangle" x="6" y="3" width="2" height="3"></rect>
            <rect id="Rectangle" x="5" y="12" width="7" height="1"></rect>
            <rect id="Rectangle" x="9" y="17" width="9" height="1"></rect>
            <rect id="Rectangle" x="12" y="14" width="4" height="4"></rect>
            <rect id="Rectangle" x="11" y="11" width="4" height="4"></rect>
            <rect id="Rectangle" x="10" y="8" width="4" height="4"></rect>
            <rect id="Rectangle" x="9" y="5" width="4" height="4"></rect>
            <rect id="Rectangle" x="8" y="2" width="4" height="4"></rect>
            <rect id="Rectangle" x="2" y="15" width="2" height="3"></rect>
            <rect id="Rectangle" x="0" y="17" width="6" height="1"></rect>
        </g>
    </g>
</svg>