<?xml version="1.0" encoding="UTF-8"?>
<svg width="24px" height="24px" viewBox="0 0 24 24" version="1.1" xmlns="http://www.w3.org/2000/svg" xmlns:xlink="http://www.w3.org/1999/xlink">
    <!-- Generator: Sketch 58 (84663) - https://sketch.com -->
    <title>octocat</title>
    <desc>Created with Sketch.</desc>
    <g id="octocat" stroke="none" stroke-width="1" fill="none" fill-rule="evenodd">
        <rect id="Rectangle" fill="#000000" x="9" y="18" width="7" height="4"></rect>
        <rect id="Rectangle" fill="#000000" x="10" y="16" width="5" height="3"></rect>
        <rect id="Rectangle" fill="#000000" x="8" y="15" width="9" height="2"></rect>
        <rect id="Rectangle" fill="#000000" x="6" y="14" width="13" height="2"></rect>
        <rect id="Rectangle" fill="#000000" x="5" y="13" width="15" height="2"></rect>
        <rect id="Rectangle" fill="#000000" x="4" y="11" width="17" height="3"></rect>
        <rect id="Rectangle" fill="#000000" x="3" y="8" width="19" height="4"></rect>
        <rect id="Rectangle" fill="#000000" x="5" y="4" width="15" height="2"></rect>
        <rect id="Rectangle" fill="#000000" x="4" y="5" width="17" height="3"></rect>
        <rect id="Rectangle" fill="#000000" x="17" y="3" width="3" height="2"></rect>
        <rect id="Rectangle" fill="#000000" x="5" y="2" width="2" height="2"></rect>
        <rect id="Rectangle" fill="#000000" x="18" y="2" width="2" height="2"></rect>
        <rect id="Rectangle" fill="#000000" x="6" y="19" width="3" height="1"></rect>
        <rect id="Rectangle" fill="#000000" x="6" y="18" width="1" height="2"></rect>
        <rect id="Rectangle" fill="#000000" x="5" y="17" width="1" height="2"></rect>
        <rect id="Rectangle" fill="#000000" x="4" y="17" width="2" height="1"></rect>
        <rect id="Rectangle" fill="#000000" x="5" y="18" width="2" height="1"></rect>
        <rect id="Rectangle" fill="#000000" x="5" y="3" width="3" height="2"></rect>
        <rect id="Rectangle" fill="#000000" x="10" y="3" width="5" height="2"></rect>
    </g>
</svg>