<svg xmlns="http://www.w3.org/2000/svg" viewBox="0 0 312 64"><g fill="none" fill-rule="evenodd"><path fill="#F7A800" d="M0 0h312v64H0z"/><path fill="#333" fill-rule="nonzero" d="M24 41V20h18v3h3v9h-3v3H30v6h-6zm6-9h9v-9h-9v9zm21 9v-3h-3v-9h3v-3h15v3h3v9h-3v3H51zm3-3h9v-9h-9v9zm21 3v-3h6V23h-3v-3h9v18h6v3H75zm30-18v-3h6v3h-6zm-6 18v-3h6v-9h-3v-3h9v12h6v3H99zm24 0v-3h-3v-9h3v-3h18v3h-15v9h15v3h-18zm24 0v-3h-3v-9h3v-3h15v3h3v6h-15v3h12v3h-15zm3-9h9v-3h-9v3zm117 9v-3h-3v-9h3v-3h15v3h3v6h-15v3h12v3h-15zm3-9h9v-3h-9v3zm-75 9V20h6v18h12v3h-18zm30-18v-3h6v3h-6zm-6 18v-3h6v-9h-3v-3h9v12h6v3h-18zm21 0V26h18v3h3v12h-6V29h-9v12h-6z"/></g></svg>
